<?xml version="1.0" encoding="UTF-8"?> <svg xmlns="http://www.w3.org/2000/svg" id="a" data-name="Layer 1" viewBox="0 0 848.45 137.1" width="278" height="78"><defs><style> .b { fill: #1b4584; } .b, .c, .d { stroke-width: 0px; } .c { fill: #ee1e38; } .d { fill: #010101; } </style></defs><rect class="b" x="86.83" y="29.24" width="50.54" height="21.54"></rect><rect class="c" x="115.57" y=".5" width="21.74" height="21.54"></rect><rect class="b" x=".5" y=".5" width="50.49" height="50.28"></rect><rect class="c" x="58.09" y="29.24" width="21.69" height="21.54"></rect><rect class="d" x="29.24" y="115.16" width="21.74" height="21.44"></rect><rect class="b" x=".5" y="115.16" width="21.74" height="21.44"></rect><rect class="d" x="115.57" y="57.78" width="21.74" height="50.08"></rect><rect class="d" x=".5" y="57.78" width="21.74" height="21.64"></rect><rect class="c" x="115.57" y="115.16" width="21.74" height="21.44"></rect><polygon class="c" points="50.99 107.86 50.99 86.42 .5 86.52 .5 107.86 50.99 107.86"></polygon><rect class="b" x="58.09" y="86.42" width="50.49" height="50.18"></rect><rect class="d" x="58.09" y=".5" width="50.49" height="21.54"></rect><g><path class="d" d="m34.45,65.61c.14.14.31.21.51.21h1.87c.19,0,.36-.07.49-.21.13-.14.2-.31.2-.51v-1.36c0-.2.07-.36.21-.49.14-.13.31-.2.51-.2h2.72c.2,0,.36.07.49.2.13.13.2.3.2.5v9.93c0,.2-.07.37-.2.51-.13.14-.3.21-.49.21h-2.14c-.2,0-.36.07-.49.2s-.2.3-.2.49v1.76c0,.2.07.36.2.51.13.14.3.21.49.21h9.21c.2,0,.36-.07.49-.21.13-.14.2-.31.2-.51v-1.76c0-.2-.07-.36-.2-.49-.13-.13-.3-.2-.49-.2h-2.13c-.2,0-.36-.07-.49-.21-.13-.14-.2-.31-.2-.51v-9.93c0-.2.07-.36.2-.5.13-.13.3-.2.49-.2h2.75c.2,0,.36.07.49.2.13.13.2.3.2.49v1.36c0,.2.07.36.21.51.14.14.31.21.51.21h1.87c.2,0,.36-.07.51-.21.14-.14.21-.31.21-.51v-4.52c0-.19-.07-.36-.21-.5-.14-.14-.31-.21-.51-.21h-16.98c-.2,0-.36.07-.51.21-.14.14-.21.31-.21.5v4.52c0,.2.07.36.21.51Z"></path><path class="d" d="m61.02,77.57h16.26c.2,0,.36-.07.51-.21.14-.14.21-.31.21-.51v-1.76c0-.2-.07-.36-.21-.49-.14-.13-.31-.2-.51-.2h-5.66c-.2,0-.36-.07-.49-.21-.13-.14-.2-.31-.2-.51v-9.93c0-.2.07-.36.2-.5.13-.13.3-.2.49-.2h5.66c.2,0,.36-.07.51-.21.14-.14.21-.31.21-.5v-1.75c0-.19-.07-.36-.21-.5-.14-.14-.31-.21-.51-.21h-16.26c-.2,0-.36.07-.51.21-.14.14-.21.31-.21.5v1.75c0,.19.07.36.21.5.14.14.31.21.51.21h5.66c.2,0,.36.07.49.2.13.13.2.3.2.5v9.93c0,.2-.07.37-.2.51-.13.14-.3.21-.49.21h-5.66c-.2,0-.36.07-.51.2-.14.13-.21.3-.21.49v1.76c0,.2.07.36.21.51.14.14.31.21.51.21Z"></path><path class="d" d="m85.69,72.36c0,.73.14,1.41.41,2.04.28.63.65,1.18,1.13,1.64.48.46,1.05.83,1.7,1.11.65.28,1.34.41,2.07.41h11.85c.2,0,.36-.07.51-.21.14-.14.21-.31.21-.51v-1.76c0-.2-.07-.36-.21-.49-.14-.13-.31-.2-.51-.2h-11.85c-.5,0-.92-.2-1.25-.59-.34-.39-.51-.87-.51-1.44s.17-1.05.51-1.45c.34-.4.76-.6,1.25-.6h8.3c.19,0,.36-.07.51-.2.14-.13.21-.3.21-.49v-1.76c0-.2-.07-.36-.21-.51-.14-.14-.31-.21-.51-.21h-8.3c-.5,0-.92-.2-1.25-.59-.34-.39-.51-.88-.51-1.45s.17-1.06.51-1.45c.34-.39.76-.59,1.25-.59h11.85c.2,0,.36-.07.51-.21.14-.14.21-.31.21-.5v-1.75c0-.19-.07-.36-.21-.5-.14-.14-.31-.21-.51-.21h-11.85c-.73,0-1.42.14-2.07.41-.65.28-1.21.65-1.7,1.12-.48.47-.86,1.03-1.13,1.67-.28.64-.41,1.32-.41,2.03s.13,1.38.4,2c.27.62.63,1.17,1.09,1.63-.46.46-.83,1.01-1.09,1.63-.27.62-.4,1.29-.4,2Z"></path></g><g><path class="d" d="m209.26,38.69c-.26.26-.58.39-.94.39h-3.45c-.36,0-.67-.13-.94-.39-.26-.26-.4-.57-.4-.94v-2.51c0-.36-.12-.67-.37-.91-.25-.25-.55-.37-.91-.37h-5.07c-.36,0-.66.12-.91.37-.25.25-.37.55-.37.91v18.32c0,.36.12.68.37.94.25.26.55.4.91.4h3.94c.36,0,.67.12.91.37s.37.55.37.91v3.25c0,.36-.12.67-.37.94-.25.26-.55.39-.91.39h-17c-.36,0-.66-.13-.91-.39s-.37-.57-.37-.94v-3.25c0-.36.12-.66.37-.91.25-.25.55-.37.91-.37h3.94c.36,0,.67-.13.91-.4.25-.26.37-.58.37-.94v-18.32c0-.36-.12-.67-.37-.91-.25-.25-.55-.37-.91-.37h-5.02c-.36,0-.67.12-.94.37-.26.25-.39.55-.39.91v2.51c0,.36-.12.67-.37.94-.25.26-.55.39-.91.39h-3.45c-.36,0-.67-.13-.94-.39-.26-.26-.39-.57-.39-.94v-8.34c0-.36.13-.67.39-.93.26-.26.57-.39.94-.39h31.33c.36,0,.67.13.94.39s.39.57.39.93v8.34c0,.36-.13.67-.39.94Z"></path><path class="d" d="m255.28,60.37c-.26.26-.58.39-.94.39h-21.87c-1.35,0-2.62-.25-3.82-.76-1.2-.51-2.24-1.19-3.13-2.04-.89-.85-1.59-1.86-2.09-3.03-.51-1.17-.76-2.42-.76-3.77s.25-2.55.74-3.7c.49-1.15,1.17-2.15,2.02-3-.85-.85-1.53-1.86-2.02-3-.49-1.15-.74-2.38-.74-3.7s.25-2.56.76-3.74c.51-1.18,1.21-2.21,2.09-3.08.89-.87,1.93-1.56,3.13-2.07,1.2-.51,2.47-.76,3.82-.76h21.87c.36,0,.67.13.94.39.26.26.39.57.39.93v3.22c0,.36-.13.67-.39.93-.26.26-.58.39-.94.39h-21.87c-.92,0-1.69.36-2.32,1.09-.62.73-.94,1.62-.94,2.68s.31,1.95.94,2.68c.62.73,1.4,1.09,2.32,1.09h15.32c.36,0,.67.13.94.39.26.26.39.58.39.94v3.25c0,.36-.13.66-.39.91-.26.25-.58.37-.94.37h-15.32c-.92,0-1.69.37-2.32,1.11-.62.74-.94,1.63-.94,2.69s.31,1.94.94,2.66c.62.72,1.4,1.08,2.32,1.08h21.87c.36,0,.67.12.94.37.26.25.39.55.39.91v3.25c0,.36-.13.67-.39.94Z"></path><path class="d" d="m289.62,43.86l12.27,14.78c.2.26.3.54.3.84,0,.33-.12.62-.35.89s-.54.39-.94.39h-5.12c-.46,0-.8-.15-1.03-.44l-9.26-11.63-9.16,11.53c-.3.36-.67.54-1.13.54h-5.07c-.39,0-.71-.12-.96-.37s-.37-.55-.37-.91c0-.33.12-.62.35-.89l12.22-14.73-11.13-13.6c-.2-.23-.3-.53-.3-.89s.11-.67.35-.91c.23-.25.54-.37.94-.37h4.83c.46,0,.82.18,1.08.54l8.37,10.49,8.42-10.54c.26-.33.61-.49,1.03-.49h4.83c.43,0,.75.12.96.37.21.25.32.55.32.91s-.1.66-.3.89l-11.13,13.6Z"></path><path class="d" d="m348.09,59.43c0,.36-.13.67-.39.94-.26.26-.58.39-.94.39h-3.89c-.36,0-.67-.13-.94-.39-.26-.26-.39-.57-.39-.94v-4.04c0-.36-.12-.67-.37-.94-.25-.26-.55-.39-.91-.39h-17c-.36,0-.66.13-.91.39-.25.26-.37.58-.37.94v4.04c0,.36-.13.67-.39.94-.26.26-.58.39-.94.39h-3.89c-.36,0-.67-.13-.94-.39s-.39-.57-.39-.94v-15.37c0-2.33.43-4.52,1.28-6.55.85-2.04,2.02-3.81,3.5-5.32,1.48-1.51,3.2-2.7,5.17-3.57,1.97-.87,4.09-1.31,6.35-1.31s4.39.44,6.38,1.31c1.99.87,3.72,2.06,5.2,3.57,1.48,1.51,2.64,3.28,3.5,5.32.85,2.04,1.28,4.22,1.28,6.55v15.37Zm-6.55-15.22c0-1.48-.25-2.87-.76-4.19s-1.21-2.46-2.09-3.45c-.89-.99-1.93-1.76-3.13-2.32-1.2-.56-2.47-.84-3.82-.84s-2.61.28-3.79.84c-1.18.56-2.22,1.31-3.1,2.27-.89.95-1.58,2.08-2.09,3.37-.51,1.3-.76,2.68-.76,4.16v2.81c0,.36.12.67.37.94s.55.39.91.39h17c.36,0,.67-.13.91-.39.25-.26.37-.57.37-.94v-2.66Z"></path><path class="d" d="m394.7,51.15c0,1.31-.25,2.55-.76,3.72-.51,1.17-1.21,2.19-2.09,3.05-.89.87-1.93,1.56-3.13,2.07s-2.47.76-3.82.76h-20.64c-.36,0-.66-.13-.91-.39-.25-.26-.37-.57-.37-.94v-3.25c0-.36.12-.66.37-.91.25-.25.55-.37.91-.37h20.64c.89,0,1.65-.36,2.29-1.08s.96-1.61.96-2.66-.32-1.95-.96-2.69c-.64-.74-1.4-1.11-2.29-1.11h-13.05c-1.35,0-2.62-.25-3.82-.76s-2.24-1.19-3.13-2.04c-.89-.85-1.59-1.86-2.09-3.03-.51-1.16-.76-2.42-.76-3.77s.25-2.56.76-3.74c.51-1.18,1.21-2.21,2.09-3.08.89-.87,1.93-1.56,3.13-2.07s2.47-.76,3.82-.76h21.08c.36,0,.67.13.91.39.25.26.37.57.37.93v6.71c0,.36-.12.67-.37.94-.25.26-.55.39-.91.39h-3.45c-.36,0-.67-.13-.94-.39-.26-.26-.39-.57-.39-.94v-.89c0-.36-.12-.67-.37-.91-.25-.25-.55-.37-.91-.37h-15.02c-.92,0-1.69.36-2.32,1.09-.62.73-.94,1.62-.94,2.68s.31,1.95.94,2.68c.62.73,1.4,1.09,2.32,1.09h13.05c1.35,0,2.62.25,3.82.76s2.24,1.2,3.13,2.07c.89.87,1.58,1.9,2.09,3.08.51,1.18.76,2.43.76,3.74Z"></path><path class="d" d="m471.16,60.37c-.26.26-.58.39-.94.39h-30c-.36,0-.67-.13-.94-.39s-.39-.57-.39-.94v-3.25c0-.36.13-.66.39-.91.26-.25.58-.37.94-.37h10.44c.36,0,.67-.13.91-.4.25-.26.37-.58.37-.94v-18.32c0-.36-.12-.67-.37-.91-.25-.25-.55-.37-.91-.37h-10.44c-.36,0-.67-.13-.94-.39s-.39-.57-.39-.93v-3.22c0-.36.13-.67.39-.93s.58-.39.94-.39h30c.36,0,.67.13.94.39.26.26.39.57.39.93v3.22c0,.36-.13.67-.39.93-.26.26-.58.39-.94.39h-10.44c-.36,0-.66.12-.91.37-.25.25-.37.55-.37.91v18.32c0,.36.12.68.37.94.25.26.55.4.91.4h10.44c.36,0,.67.12.94.37.26.25.39.55.39.91v3.25c0,.36-.13.67-.39.94Z"></path><path class="d" d="m518.18,60.37c-.24.26-.55.39-.9.39h-4.4c-.39,0-.7-.15-.93-.44l-19.51-22.46v21.58c0,.36-.12.67-.37.94s-.55.39-.9.39h-3.91c-.36,0-.66-.13-.9-.39-.24-.26-.37-.57-.37-.94v-30c0-.36.12-.67.37-.94.24-.26.55-.39.9-.39h4.84c.36,0,.71.17,1.04.49l18.96,21.97v-21.14c0-.36.12-.67.37-.94.24-.26.55-.39.9-.39h3.91c.36,0,.66.13.9.39.24.26.37.58.37.94v30c0,.36-.12.67-.37.94Z"></path><path class="d" d="m565.81,51.15c0,1.31-.25,2.55-.76,3.72-.51,1.17-1.21,2.19-2.09,3.05-.89.87-1.93,1.56-3.13,2.07-1.2.51-2.47.76-3.82.76h-20.64c-.36,0-.66-.13-.91-.39-.25-.26-.37-.57-.37-.94v-3.25c0-.36.12-.66.37-.91.25-.25.55-.37.91-.37h20.64c.89,0,1.65-.36,2.29-1.08s.96-1.61.96-2.66-.32-1.95-.96-2.69c-.64-.74-1.4-1.11-2.29-1.11h-13.05c-1.35,0-2.62-.25-3.82-.76-1.2-.51-2.24-1.19-3.13-2.04-.89-.85-1.59-1.86-2.09-3.03-.51-1.16-.76-2.42-.76-3.77s.25-2.56.76-3.74c.51-1.18,1.21-2.21,2.09-3.08.89-.87,1.93-1.56,3.13-2.07,1.2-.51,2.47-.76,3.82-.76h21.08c.36,0,.67.13.91.39.25.26.37.57.37.93v6.71c0,.36-.12.67-.37.94-.25.26-.55.39-.91.39h-3.45c-.36,0-.67-.13-.94-.39-.26-.26-.39-.57-.39-.94v-.89c0-.36-.12-.67-.37-.91-.25-.25-.55-.37-.91-.37h-15.02c-.92,0-1.69.36-2.32,1.09-.62.73-.94,1.62-.94,2.68s.31,1.95.94,2.68c.62.73,1.4,1.09,2.32,1.09h13.05c1.35,0,2.62.25,3.82.76s2.24,1.2,3.13,2.07c.89.87,1.58,1.9,2.09,3.08.51,1.18.76,2.43.76,3.74Z"></path><path class="d" d="m612.23,38.69c-.26.26-.58.39-.94.39h-3.45c-.36,0-.67-.13-.94-.39-.26-.26-.4-.57-.4-.94v-2.51c0-.36-.12-.67-.37-.91-.25-.25-.55-.37-.91-.37h-5.07c-.36,0-.66.12-.91.37-.25.25-.37.55-.37.91v18.32c0,.36.12.68.37.94.25.26.55.4.91.4h3.94c.36,0,.67.12.91.37s.37.55.37.91v3.25c0,.36-.12.67-.37.94-.25.26-.55.39-.91.39h-17c-.36,0-.66-.13-.91-.39s-.37-.57-.37-.94v-3.25c0-.36.12-.66.37-.91.25-.25.55-.37.91-.37h3.94c.36,0,.67-.13.91-.4.25-.26.37-.58.37-.94v-18.32c0-.36-.12-.67-.37-.91-.25-.25-.55-.37-.91-.37h-5.02c-.36,0-.67.12-.94.37-.26.25-.39.55-.39.91v2.51c0,.36-.12.67-.37.94-.25.26-.55.39-.91.39h-3.45c-.36,0-.67-.13-.94-.39-.26-.26-.39-.57-.39-.94v-8.34c0-.36.13-.67.39-.93.26-.26.57-.39.94-.39h31.33c.36,0,.67.13.94.39s.39.57.39.93v8.34c0,.36-.13.67-.39.94Z"></path><path class="d" d="m657.98,60.37c-.26.26-.58.39-.94.39h-30c-.36,0-.67-.13-.94-.39s-.39-.57-.39-.94v-3.25c0-.36.13-.66.39-.91.26-.25.58-.37.94-.37h10.44c.36,0,.67-.13.91-.4.25-.26.37-.58.37-.94v-18.32c0-.36-.12-.67-.37-.91-.25-.25-.55-.37-.91-.37h-10.44c-.36,0-.67-.13-.94-.39s-.39-.57-.39-.93v-3.22c0-.36.13-.67.39-.93s.58-.39.94-.39h30c.36,0,.67.13.94.39.26.26.39.57.39.93v3.22c0,.36-.13.67-.39.93-.26.26-.58.39-.94.39h-10.44c-.36,0-.66.12-.91.37-.25.25-.37.55-.37.91v18.32c0,.36.12.68.37.94.25.26.55.4.91.4h10.44c.36,0,.67.12.94.37.26.25.39.55.39.91v3.25c0,.36-.13.67-.39.94Z"></path><path class="d" d="m705.08,38.69c-.26.26-.58.39-.94.39h-3.45c-.36,0-.67-.13-.94-.39-.26-.26-.4-.57-.4-.94v-2.51c0-.36-.12-.67-.37-.91-.25-.25-.55-.37-.91-.37h-5.07c-.36,0-.66.12-.91.37-.25.25-.37.55-.37.91v18.32c0,.36.12.68.37.94.25.26.55.4.91.4h3.94c.36,0,.67.12.91.37s.37.55.37.91v3.25c0,.36-.12.67-.37.94-.25.26-.55.39-.91.39h-17c-.36,0-.66-.13-.91-.39s-.37-.57-.37-.94v-3.25c0-.36.12-.66.37-.91.25-.25.55-.37.91-.37h3.94c.36,0,.67-.13.91-.4.25-.26.37-.58.37-.94v-18.32c0-.36-.12-.67-.37-.91-.25-.25-.55-.37-.91-.37h-5.02c-.36,0-.67.12-.94.37-.26.25-.39.55-.39.91v2.51c0,.36-.12.67-.37.94-.25.26-.55.39-.91.39h-3.45c-.36,0-.67-.13-.94-.39-.26-.26-.39-.57-.39-.94v-8.34c0-.36.13-.67.39-.93.26-.26.57-.39.94-.39h31.33c.36,0,.67.13.94.39s.39.57.39.93v8.34c0,.36-.13.67-.39.94Z"></path><path class="d" d="m749.94,51.1c-.85,2.07-2.02,3.87-3.5,5.39-1.48,1.53-3.21,2.73-5.2,3.62-1.99.89-4.11,1.33-6.38,1.33s-4.38-.44-6.35-1.33c-1.97-.89-3.69-2.09-5.17-3.62-1.48-1.53-2.64-3.33-3.5-5.39-.85-2.07-1.28-4.27-1.28-6.6v-15.07c0-.36.13-.67.39-.94.26-.26.58-.39.94-.39h3.89c.36,0,.67.13.94.39.26.26.39.58.39.94v15.07c0,1.48.25,2.87.76,4.16.51,1.3,1.21,2.44,2.09,3.42.89.98,1.92,1.76,3.1,2.32,1.18.56,2.45.84,3.79.84s2.62-.28,3.82-.84c1.2-.56,2.24-1.33,3.13-2.32.89-.99,1.58-2.13,2.09-3.42.51-1.3.76-2.68.76-4.16v-15.07c0-.16.06-.33.2-.49.13-.16.28-.31.44-.44.2-.13.43-.26.69-.39h3.89c.36,0,.67.13.94.39.26.26.39.58.39.94v15.07c0,2.33-.43,4.53-1.28,6.6Z"></path><path class="d" d="m797.93,38.69c-.26.26-.58.39-.94.39h-3.45c-.36,0-.67-.13-.94-.39-.26-.26-.4-.57-.4-.94v-2.51c0-.36-.12-.67-.37-.91-.25-.25-.55-.37-.91-.37h-5.07c-.36,0-.66.12-.91.37-.25.25-.37.55-.37.91v18.32c0,.36.12.68.37.94.25.26.55.4.91.4h3.94c.36,0,.67.12.91.37s.37.55.37.91v3.25c0,.36-.12.67-.37.94-.25.26-.55.39-.91.39h-17c-.36,0-.66-.13-.91-.39s-.37-.57-.37-.94v-3.25c0-.36.12-.66.37-.91.25-.25.55-.37.91-.37h3.94c.36,0,.67-.13.91-.4.25-.26.37-.58.37-.94v-18.32c0-.36-.12-.67-.37-.91-.25-.25-.55-.37-.91-.37h-5.02c-.36,0-.67.12-.94.37-.26.25-.39.55-.39.91v2.51c0,.36-.12.67-.37.94-.25.26-.55.39-.91.39h-3.45c-.36,0-.67-.13-.94-.39-.26-.26-.39-.57-.39-.94v-8.34c0-.36.13-.67.39-.93.26-.26.57-.39.94-.39h31.33c.36,0,.67.13.94.39s.39.57.39.93v8.34c0,.36-.13.67-.39.94Z"></path><path class="d" d="m843.95,60.37c-.26.26-.58.39-.94.39h-21.87c-1.35,0-2.62-.25-3.82-.76-1.2-.51-2.24-1.19-3.13-2.04-.89-.85-1.59-1.86-2.09-3.03-.51-1.17-.76-2.42-.76-3.77s.25-2.55.74-3.7c.49-1.15,1.17-2.15,2.02-3-.85-.85-1.53-1.86-2.02-3-.49-1.15-.74-2.38-.74-3.7s.25-2.56.76-3.74c.51-1.18,1.21-2.21,2.09-3.08.89-.87,1.93-1.56,3.13-2.07,1.2-.51,2.47-.76,3.82-.76h21.87c.36,0,.67.13.94.39.26.26.39.57.39.93v3.22c0,.36-.13.67-.39.93-.26.26-.58.39-.94.39h-21.87c-.92,0-1.69.36-2.32,1.09-.62.73-.94,1.62-.94,2.68s.31,1.95.94,2.68c.62.73,1.4,1.09,2.32,1.09h15.32c.36,0,.67.13.94.39.26.26.39.58.39.94v3.25c0,.36-.13.66-.39.91-.26.25-.58.37-.94.37h-15.32c-.92,0-1.69.37-2.32,1.11-.62.74-.94,1.63-.94,2.69s.31,1.94.94,2.66c.62.72,1.4,1.08,2.32,1.08h21.87c.36,0,.67.12.94.37.26.25.39.55.39.91v3.25c0,.36-.13.67-.39.94Z"></path><path class="d" d="m212.91,86.91c-.26.26-.58.39-.94.39h-21.48c-.92,0-1.69.36-2.32,1.09-.62.73-.94,1.62-.94,2.68s.31,1.95.94,2.68c.62.73,1.4,1.09,2.32,1.09h14.98c.36,0,.66.13.91.39.25.26.37.58.37.94v3.25c0,.36-.12.66-.37.91-.25.25-.55.37-.91.37h-14.34c-.92,0-1.69.37-2.32,1.11-.62.74-.94,1.63-.94,2.69v8.28c0,.36-.13.67-.39.94s-.58.39-.94.39h-3.89c-.36,0-.67-.13-.94-.39-.26-.26-.39-.57-.39-.94v-8.28c0-1.25.22-2.41.66-3.5.44-1.08,1.04-2.05,1.8-2.91-.95-.85-1.71-1.89-2.27-3.1-.56-1.21-.84-2.51-.84-3.89s.25-2.56.76-3.74c.51-1.18,1.21-2.21,2.09-3.08.89-.87,1.93-1.56,3.13-2.07,1.2-.51,2.47-.76,3.82-.76h21.48c.36,0,.67.13.94.39s.39.57.39.93v3.22c0,.36-.13.67-.39.93Z"></path><path class="d" d="m225.61,97.79c0-2.43.46-4.71,1.38-6.85.92-2.14,2.18-4,3.79-5.59s3.49-2.85,5.64-3.77c2.15-.92,4.44-1.38,6.87-1.38s4.72.46,6.87,1.38,4.02,2.18,5.62,3.77c1.59,1.59,2.86,3.46,3.79,5.59.94,2.14,1.4,4.42,1.4,6.85s-.47,4.71-1.4,6.85c-.94,2.14-2.2,3.99-3.79,5.57-1.59,1.58-3.47,2.83-5.62,3.74-2.15.92-4.44,1.38-6.87,1.38s-4.72-.46-6.87-1.38c-2.15-.92-4.03-2.17-5.64-3.74-1.61-1.58-2.87-3.43-3.79-5.57-.92-2.13-1.38-4.42-1.38-6.85Zm6.7,0c0,1.58.29,3.06.86,4.46.57,1.4,1.36,2.61,2.36,3.65,1,1.03,2.17,1.85,3.5,2.44,1.33.59,2.75.89,4.26.89s2.93-.3,4.26-.89,2.5-1.4,3.5-2.44,1.79-2.25,2.37-3.65c.57-1.4.86-2.88.86-4.46s-.29-3.06-.86-4.46c-.58-1.4-1.36-2.61-2.37-3.65s-2.17-1.86-3.5-2.46c-1.33-.61-2.75-.91-4.26-.91s-2.93.3-4.26.91c-1.33.61-2.5,1.43-3.5,2.46s-1.79,2.25-2.36,3.65c-.58,1.4-.86,2.88-.86,4.46Z"></path><path class="d" d="m309.05,112.77c0,.36-.13.67-.39.94s-.58.39-.94.39h-3.89c-.36,0-.67-.13-.94-.39s-.39-.57-.39-.94v-4.83c0-1.05-.32-1.94-.96-2.66-.64-.72-1.41-1.08-2.29-1.08h-16.7c-.3,0-.58.13-.84.39s-.39.54-.39.84v7.34c0,.36-.13.67-.39.94s-.58.39-.94.39h-3.89c-.36,0-.67-.13-.94-.39-.26-.26-.39-.57-.39-.94v-30c0-.36.13-.67.39-.94.26-.26.57-.39.94-.39h20.15c1.35,0,2.62.25,3.82.76,1.2.51,2.24,1.2,3.13,2.07.89.87,1.59,1.9,2.09,3.08.51,1.18.76,2.43.76,3.74v3.4c0,.98-.14,1.92-.42,2.81-.28.89-.68,1.71-1.21,2.46,1.38.85,2.5,2,3.35,3.42.85,1.43,1.28,3.01,1.28,4.75v4.83Zm-9.56-21.69c0-1.06-.31-1.95-.94-2.68s-1.4-1.09-2.32-1.09h-14.93v9.74c0,.36.12.67.37.92.25.25.55.37.91.37h13.65c.92,0,1.69-.36,2.32-1.09.62-.73.94-1.62.94-2.68v-3.48Z"></path><path class="d" d="m384.03,113.7c-.26.26-.58.39-.94.39h-21.87c-1.35,0-2.62-.25-3.82-.76-1.2-.51-2.24-1.19-3.13-2.04-.89-.85-1.59-1.86-2.09-3.03s-.76-2.42-.76-3.77.25-2.55.74-3.7c.49-1.15,1.17-2.15,2.02-3-.85-.85-1.53-1.86-2.02-3-.49-1.15-.74-2.38-.74-3.7s.25-2.56.76-3.74c.51-1.18,1.21-2.21,2.09-3.08.89-.87,1.93-1.56,3.13-2.07,1.2-.51,2.47-.76,3.82-.76h21.87c.36,0,.67.13.94.39.26.26.39.57.39.93v3.22c0,.36-.13.67-.39.93-.26.26-.58.39-.94.39h-21.87c-.92,0-1.69.36-2.32,1.09-.62.73-.94,1.62-.94,2.68s.31,1.95.94,2.68c.62.73,1.4,1.09,2.32,1.09h15.32c.36,0,.67.13.94.39.26.26.39.58.39.94v3.25c0,.36-.13.66-.39.91-.26.25-.58.37-.94.37h-15.32c-.92,0-1.69.37-2.32,1.11-.62.74-.94,1.63-.94,2.69s.31,1.94.94,2.66c.62.72,1.4,1.08,2.32,1.08h21.87c.36,0,.67.12.94.37.26.25.39.55.39.91v3.25c0,.36-.13.67-.39.94Z"></path><path class="d" d="m476.33,113.7c-.26.26-.58.39-.94.39h-21.87c-1.35,0-2.62-.25-3.82-.76-1.2-.51-2.24-1.19-3.13-2.04-.89-.85-1.59-1.86-2.09-3.03s-.76-2.42-.76-3.77.25-2.55.74-3.7c.49-1.15,1.17-2.15,2.02-3-.85-.85-1.53-1.86-2.02-3-.49-1.15-.74-2.38-.74-3.7s.25-2.56.76-3.74,1.21-2.21,2.09-3.08c.89-.87,1.93-1.56,3.13-2.07,1.2-.51,2.47-.76,3.82-.76h21.87c.36,0,.67.13.94.39.26.26.39.57.39.93v3.22c0,.36-.13.67-.39.93-.26.26-.58.39-.94.39h-21.87c-.92,0-1.69.36-2.32,1.09-.62.73-.94,1.62-.94,2.68s.31,1.95.94,2.68c.62.73,1.4,1.09,2.32,1.09h15.32c.36,0,.67.13.94.39.26.26.39.58.39.94v3.25c0,.36-.13.66-.39.91-.26.25-.58.37-.94.37h-15.32c-.92,0-1.69.37-2.32,1.11-.62.74-.94,1.63-.94,2.69s.31,1.94.94,2.66c.62.72,1.4,1.08,2.32,1.08h21.87c.36,0,.67.12.94.37.26.25.39.55.39.91v3.25c0,.36-.13.67-.39.94Z"></path><path class="d" d="m520.45,113.7c-.26.26-.58.39-.94.39h-14.93c-2.27,0-4.38-.43-6.35-1.28-1.97-.85-3.69-2.02-5.17-3.5-1.48-1.48-2.64-3.2-3.5-5.17-.85-1.97-1.28-4.09-1.28-6.35s.43-4.39,1.28-6.38c.85-1.99,2.02-3.72,3.5-5.2,1.48-1.48,3.2-2.64,5.17-3.5,1.97-.85,4.09-1.28,6.35-1.28h14.93c.36,0,.67.13.94.39.26.26.39.57.39.93v6.71c0,.36-.13.67-.39.94-.26.26-.58.39-.94.39h-3.45c-.36,0-.67-.13-.94-.39s-.39-.57-.39-.94v-.89c0-.36-.12-.67-.37-.91-.25-.25-.55-.37-.91-.37h-8.89c-1.35,0-2.63.27-3.83.82-1.2.54-2.25,1.29-3.14,2.25-.89.95-1.59,2.07-2.1,3.33-.51,1.27-.77,2.63-.77,4.07s.25,2.81.77,4.07c.51,1.27,1.21,2.38,2.1,3.33.89.95,1.93,1.7,3.14,2.25,1.2.54,2.48.81,3.83.81h8.89c.36,0,.67-.13.91-.39s.37-.57.37-.94v-.89c0-.36.13-.67.39-.91.26-.25.58-.37.94-.37h3.45c.36,0,.67.12.94.37.26.25.39.55.39.91v6.75c0,.36-.13.67-.39.94Z"></path><path class="d" d="m568.37,92.03c-.26.26-.58.39-.94.39h-3.45c-.36,0-.67-.13-.94-.39-.26-.26-.4-.57-.4-.94v-2.51c0-.36-.12-.67-.37-.91-.25-.25-.55-.37-.91-.37h-5.07c-.36,0-.66.12-.91.37-.25.25-.37.55-.37.91v18.32c0,.36.12.68.37.94.25.26.55.4.91.4h3.94c.36,0,.67.12.91.37s.37.55.37.91v3.25c0,.36-.12.67-.37.94-.25.26-.55.39-.91.39h-17c-.36,0-.66-.13-.91-.39s-.37-.57-.37-.94v-3.25c0-.36.12-.66.37-.91.25-.25.55-.37.91-.37h3.94c.36,0,.67-.13.91-.4.25-.26.37-.58.37-.94v-18.32c0-.36-.12-.67-.37-.91-.25-.25-.55-.37-.91-.37h-5.02c-.36,0-.67.12-.94.37-.26.25-.39.55-.39.91v2.51c0,.36-.12.67-.37.94-.25.26-.55.39-.91.39h-3.45c-.36,0-.67-.13-.94-.39-.26-.26-.39-.57-.39-.94v-8.34c0-.36.13-.67.39-.93.26-.26.57-.39.94-.39h31.33c.36,0,.67.13.94.39s.39.57.39.93v8.34c0,.36-.13.67-.39.94Z"></path><path class="d" d="m616.16,112.77c0,.36-.13.67-.39.94s-.58.39-.94.39h-3.89c-.36,0-.67-.13-.94-.39s-.39-.57-.39-.94v-4.83c0-1.05-.32-1.94-.96-2.66-.64-.72-1.41-1.08-2.29-1.08h-16.7c-.3,0-.58.13-.84.39s-.39.54-.39.84v7.34c0,.36-.13.67-.39.94s-.58.39-.94.39h-3.89c-.36,0-.67-.13-.94-.39-.26-.26-.39-.57-.39-.94v-30c0-.36.13-.67.39-.94.26-.26.57-.39.94-.39h20.15c1.35,0,2.62.25,3.82.76,1.2.51,2.24,1.2,3.13,2.07.89.87,1.59,1.9,2.09,3.08.51,1.18.76,2.43.76,3.74v3.4c0,.98-.14,1.92-.42,2.81-.28.89-.68,1.71-1.21,2.46,1.38.85,2.5,2,3.35,3.42.85,1.43,1.28,3.01,1.28,4.75v4.83Zm-9.56-21.69c0-1.06-.31-1.95-.94-2.68-.62-.73-1.4-1.09-2.32-1.09h-14.93v9.74c0,.36.12.67.37.92.25.25.55.37.91.37h13.65c.92,0,1.69-.36,2.32-1.09s.94-1.62.94-2.68v-3.48Z"></path><path class="d" d="m627.68,97.79c0-2.43.46-4.71,1.38-6.85.92-2.14,2.18-4,3.79-5.59,1.61-1.59,3.49-2.85,5.64-3.77,2.15-.92,4.44-1.38,6.87-1.38s4.72.46,6.87,1.38c2.15.92,4.02,2.18,5.62,3.77,1.59,1.59,2.86,3.46,3.79,5.59s1.4,4.42,1.4,6.85-.47,4.71-1.4,6.85c-.94,2.14-2.2,3.99-3.79,5.57-1.59,1.58-3.47,2.83-5.62,3.74-2.15.92-4.44,1.38-6.87,1.38s-4.72-.46-6.87-1.38c-2.15-.92-4.03-2.17-5.64-3.74-1.61-1.58-2.87-3.43-3.79-5.57-.92-2.13-1.38-4.42-1.38-6.85Zm6.7,0c0,1.58.29,3.06.86,4.46.57,1.4,1.36,2.61,2.36,3.65s2.17,1.85,3.5,2.44c1.33.59,2.75.89,4.26.89s2.93-.3,4.26-.89c1.33-.59,2.5-1.4,3.5-2.44s1.79-2.25,2.37-3.65c.57-1.4.86-2.88.86-4.46s-.29-3.06-.86-4.46c-.58-1.4-1.36-2.61-2.37-3.65s-2.17-1.86-3.5-2.46c-1.33-.61-2.75-.91-4.26-.91s-2.93.3-4.26.91c-1.33.61-2.5,1.43-3.5,2.46s-1.79,2.25-2.36,3.65c-.58,1.4-.86,2.88-.86,4.46Z"></path><path class="d" d="m709.02,113.7c-.24.26-.55.39-.9.39h-4.4c-.39,0-.7-.15-.93-.44l-19.51-22.46v21.58c0,.36-.12.67-.37.94s-.55.39-.9.39h-3.91c-.36,0-.66-.13-.9-.39-.24-.26-.37-.57-.37-.94v-30c0-.36.12-.67.37-.94.24-.26.55-.39.9-.39h4.84c.36,0,.71.17,1.04.49l18.96,21.97v-21.14c0-.36.12-.67.37-.94.24-.26.55-.39.9-.39h3.91c.36,0,.66.13.9.39.24.26.37.58.37.94v30c0,.36-.12.67-.37.94Z"></path><path class="d" d="m756.06,113.7c-.26.26-.58.39-.94.39h-30c-.36,0-.67-.13-.94-.39s-.39-.57-.39-.94v-3.25c0-.36.13-.66.39-.91.26-.25.58-.37.94-.37h10.44c.36,0,.67-.13.91-.4.25-.26.37-.58.37-.94v-18.32c0-.36-.12-.67-.37-.91-.25-.25-.55-.37-.91-.37h-10.44c-.36,0-.67-.13-.94-.39s-.39-.57-.39-.93v-3.22c0-.36.13-.67.39-.93s.58-.39.94-.39h30c.36,0,.67.13.94.39.26.26.39.57.39.93v3.22c0,.36-.13.67-.39.93-.26.26-.58.39-.94.39h-10.44c-.36,0-.66.12-.91.37-.25.25-.37.55-.37.91v18.32c0,.36.12.68.37.94.25.26.55.4.91.4h10.44c.36,0,.67.12.94.37.26.25.39.55.39.91v3.25c0,.36-.13.67-.39.94Z"></path><path class="d" d="m800.13,113.7c-.26.26-.58.39-.94.39h-14.93c-2.27,0-4.38-.43-6.35-1.28-1.97-.85-3.69-2.02-5.17-3.5s-2.64-3.2-3.5-5.17c-.85-1.97-1.28-4.09-1.28-6.35s.43-4.39,1.28-6.38c.85-1.99,2.02-3.72,3.5-5.2,1.48-1.48,3.2-2.64,5.17-3.5,1.97-.85,4.09-1.28,6.35-1.28h14.93c.36,0,.67.13.94.39.26.26.39.57.39.93v6.71c0,.36-.13.67-.39.94-.26.26-.58.39-.94.39h-3.45c-.36,0-.67-.13-.94-.39s-.39-.57-.39-.94v-.89c0-.36-.12-.67-.37-.91-.25-.25-.55-.37-.91-.37h-8.89c-1.35,0-2.63.27-3.83.82-1.2.54-2.25,1.29-3.14,2.25-.89.95-1.59,2.07-2.1,3.33-.51,1.27-.77,2.63-.77,4.07s.25,2.81.77,4.07c.51,1.27,1.21,2.38,2.1,3.33.89.95,1.93,1.7,3.14,2.25,1.2.54,2.48.81,3.83.81h8.89c.36,0,.67-.13.91-.39s.37-.57.37-.94v-.89c0-.36.13-.67.39-.91.26-.25.58-.37.94-.37h3.45c.36,0,.67.12.94.37.26.25.39.55.39.91v6.75c0,.36-.13.67-.39.94Z"></path><path class="d" d="m847.95,104.49c0,1.31-.25,2.55-.76,3.72-.51,1.17-1.21,2.19-2.09,3.05-.89.87-1.93,1.56-3.13,2.07-1.2.51-2.47.76-3.82.76h-20.64c-.36,0-.66-.13-.91-.39-.25-.26-.37-.57-.37-.94v-3.25c0-.36.12-.66.37-.91.25-.25.55-.37.91-.37h20.64c.89,0,1.65-.36,2.29-1.08.64-.72.96-1.61.96-2.66s-.32-1.95-.96-2.69c-.64-.74-1.4-1.11-2.29-1.11h-13.05c-1.35,0-2.62-.25-3.82-.76s-2.24-1.19-3.13-2.04c-.89-.85-1.59-1.86-2.09-3.03-.51-1.16-.76-2.42-.76-3.77s.25-2.56.76-3.74c.51-1.18,1.21-2.21,2.09-3.08.89-.87,1.93-1.56,3.13-2.07s2.47-.76,3.82-.76h21.08c.36,0,.67.13.91.39.25.26.37.57.37.93v6.71c0,.36-.12.67-.37.94-.25.26-.55.39-.91.39h-3.45c-.36,0-.67-.13-.94-.39-.26-.26-.39-.57-.39-.94v-.89c0-.36-.12-.67-.37-.91-.25-.25-.55-.37-.91-.37h-15.02c-.92,0-1.69.36-2.32,1.09-.62.73-.94,1.62-.94,2.68s.31,1.95.94,2.68c.62.73,1.4,1.09,2.32,1.09h13.05c1.35,0,2.62.25,3.82.76,1.2.51,2.24,1.2,3.13,2.07.89.87,1.58,1.9,2.09,3.08.51,1.18.76,2.43.76,3.74Z"></path><path class="d" d="m429.38,108.16h-23.36c-.36,0-.66-.13-.91-.4-.25-.26-.37-.58-.37-.94l.02-24.4c0-.59-.48-1.07-1.07-1.07h-4.5c-.59,0-1.07.48-1.07,1.07v30.52c0,.59.48,1.07,1.07,1.07h30.19c.36,0,.67-.13.91-.39.25-.26.37-.57.37-.94v-3.25c0-.36-.12-.66-.37-.91s-.55-.37-.91-.37Z"></path></g></svg> 